<svg id="Layer_1" data-name="Layer 1" xmlns="http://www.w3.org/2000/svg" viewBox="0 0 256 256"><path d="M44.51,24c0-3.19,0-6,0-8.8C44.64,6.61,51,.1,59.26.05S74,6.26,74.23,14.88c.08,2.89,0,5.79,0,8.89H181.79c0-3.21-.12-6.45,0-9.67A14.67,14.67,0,0,1,193.58.31a14.49,14.49,0,0,1,16,7.54,21.91,21.91,0,0,1,1.84,7.32,82.53,82.53,0,0,1,.07,8.81h3q14.4,0,28.8,0C251.71,24,256,28.23,256,36.59V243.53c0,8.3-4.2,12.49-12.5,12.49h-231C4.2,256,0,251.84,0,243.54V36.6C0,28.22,4.27,24,12.73,24Q27,24,41.28,24ZM248.67,80.66H7.33V242.82c0,5.27.63,5.89,6,5.89H242.72c5.32,0,5.95-.63,5.95-5.92V80.66ZM44.51,31.32c-11.06,0-21.71,0-32.36,0-3.66,0-4.81,1.2-4.82,5q0,17.17,0,34.36c0,.75.11,1.5.17,2.23h241c0-.83.12-1.52.12-2.21q0-17.19,0-34.37c0-3.86-1.16-5-5.07-5H214c-.77,0-1.53.09-2.52.16,0,3.23.1,6.3,0,9.36a14.82,14.82,0,0,1-20.78,13.22c-5.76-2.58-8.74-7.19-8.91-13.52-.08-3,0-6.07,0-9.08H74.25c0,3,.06,5.92,0,8.81-.22,8.66-6.51,15-14.8,15.07S44.62,48.74,44.51,40.08C44.48,37.27,44.51,34.47,44.51,31.32Zm7.35-3.63v6.08c0,2.11,0,4.22,0,6.34.09,4.58,3.22,7.89,7.47,7.94a7.47,7.47,0,0,0,7.57-7.56q.27-12.81,0-25.61a7.25,7.25,0,0,0-7.83-7.47c-4.14.14-7.15,3.36-7.21,7.86C51.82,19.41,51.86,23.55,51.86,27.69Zm152.28-.11c0-4,0-8.1,0-12.15,0-4.7-3-7.93-7.31-8A7.32,7.32,0,0,0,189.07,15q-.24,12.68,0,25.35a7.54,7.54,0,0,0,7.69,7.72c4.26-.13,7.31-3.41,7.37-8C204.18,35.86,204.14,31.72,204.14,27.58Z"/></svg>