<svg id="Layer_1" data-name="Layer 1" xmlns="http://www.w3.org/2000/svg" viewBox="0 0 256 256"><defs><style>.cls-1{fill:#fff;}</style></defs><path d="M40.64,26.59c0-2.91,0-5.47,0-8,.11-7.82,5.91-13.76,13.46-13.81s13.43,5.67,13.67,13.55c.08,2.63,0,5.28,0,8.11H166c0-2.93-.11-5.89,0-8.83A13.39,13.39,0,0,1,176.76,5a13.22,13.22,0,0,1,14.61,6.88,20.27,20.27,0,0,1,1.68,6.69,76,76,0,0,1,.07,8h2.69q13.16,0,26.31,0c7.72,0,11.64,3.88,11.64,11.51v189c0,7.59-3.84,11.41-11.42,11.41H11.42C3.83,238.47,0,234.65,0,227.07v-189C0,30.47,3.9,26.6,11.63,26.59q13,0,26.06,0ZM227.07,78.35H6.69V226.41c0,4.82.58,5.39,5.45,5.39h209.5c4.85,0,5.43-.58,5.43-5.41v-148ZM40.64,33.3H11.09c-3.34,0-4.39,1.1-4.39,4.55q0,15.69,0,31.37c0,.69.1,1.38.16,2H227c.05-.76.11-1.39.11-2q0-15.69,0-31.38c0-3.52-1.06-4.56-4.62-4.56h-27c-.69,0-1.39.09-2.3.14,0,3,.1,5.76,0,8.56a13.53,13.53,0,0,1-19,12.07c-5.27-2.36-8-6.57-8.14-12.35-.07-2.77,0-5.54,0-8.29H67.8c0,2.77,0,5.41,0,8-.2,7.91-5.94,13.73-13.52,13.76s-13.52-6-13.63-13.94C40.61,38.73,40.64,36.17,40.64,33.3ZM47.35,30v5.55c0,1.93,0,3.86,0,5.79.09,4.19,3,7.2,6.83,7.25a6.83,6.83,0,0,0,6.91-6.91q.24-11.68,0-23.38A6.62,6.62,0,0,0,54,11.46c-3.79.12-6.53,3.07-6.59,7.18C47.31,22.42,47.35,26.2,47.35,30Zm139.05-.1c0-3.7,0-7.4,0-11.1-.05-4.28-2.77-7.23-6.68-7.32a6.67,6.67,0,0,0-7.07,6.92q-.22,11.57,0,23.14a6.88,6.88,0,0,0,7,7c3.9-.12,6.68-3.12,6.73-7.35C186.44,37.44,186.4,33.66,186.4,29.88Z"/><circle class="cls-1" cx="200.98" cy="196.31" r="55.02"/><path d="M201,147.71a48.6,48.6,0,1,1-48.59,48.6A48.65,48.65,0,0,1,201,147.71m0-6.42a55,55,0,1,0,55,55,55,55,0,0,0-55-55Z"/><polyline class="cls-1" points="200.98 161.42 200.98 196.31 222.04 196.31"/><path d="M222,199.52H197.77v-38.1a3.21,3.21,0,0,1,6.42,0v31.67H222a3.22,3.22,0,1,1,0,6.43Z"/></svg>